<?xml version="1.0" encoding="utf-8"?>
<!-- Svg Vector Icons : http://www.onlinewebfonts.com/icon -->
<!DOCTYPE svg PUBLIC "-//W3C//DTD SVG 1.1//EN" "http://www.w3.org/Graphics/SVG/1.1/DTD/svg11.dtd">
<svg version="1.1" xmlns="http://www.w3.org/2000/svg" xmlns:xlink="http://www.w3.org/1999/xlink" x="0px" y="0px" viewBox="0 0 256 256" enable-background="new 0 0 256 256" xml:space="preserve">
<metadata> Svg Vector Icons : http://www.onlinewebfonts.com/icon </metadata>
<g><g><g><path fill="#000000" d="M98.6,78.9v29.4H79H59.3V93.5V78.6l-24.6,24.6L10,128l24.2,24.2c13.3,13.3,24.4,24.2,24.6,24.2c0.3,0,0.5-6.5,0.5-14.4v-14.4H79h19.6l0.1,29.2l0.2,29.3l9.7,0.2l9.6,0.2V128V49.5h-9.8h-9.8L98.6,78.9L98.6,78.9z"/><path fill="#000000" d="M137.8,128v78.5h9.8h9.8V177v-29.4H177h19.6V162c0,7.9,0.2,14.4,0.5,14.4c0.2,0,11.3-10.9,24.6-24.2L246,128l-24.7-24.7l-24.6-24.6v14.9v14.8H177h-19.6V78.9V49.5h-9.8h-9.8L137.8,128L137.8,128z"/></g></g></g>
</svg>